# xmcd
#
# Track frame offsets:
#	150
#	10045
#	20765
#	33836
#	47954
#	60027
#	73729
#	89054
#	102271
#	117688
#	130314
#	141898
#	154992
#	166074
#
# Disc length: 2370 seconds
#
# Revision: 2
# Processed by: cddbd v1.5.2PL0 Copyright (c) Steve Scherf et al.
# Submitted via: EZCDAudioConverter 2.2.0.1
#
DISCID=bf09400e
DTITLE=Teodoro  Sampaio - Bailão do Teodoro e Sampaio
DYEAR=1900
DGENRE=Sertanejo
TTITLE0=Quen Tem Tem Medo
TTITLE1=Meu Negocio é Mulher
TTITLE2=Se a Casa Cair
TTITLE3=A Gostosona
TTITLE4=De Parede e Meia
TTITLE5=O Bicho Chora
TTITLE6=Cowboy Conquistador
TTITLE7=Peão Japonês
TTITLE8=Cheiro de Mulher
TTITLE9=Tudo Que Ela Quer Eu Dou
TTITLE10=Cantaram a Minha Vizinha
TTITLE11=O Machão Chorou
TTITLE12=Garanhão Da Madrugada
TTITLE13=Minha Parte Eu Quero Em Pinga
EXTD=
EXTT0=
EXTT1=
EXTT2=
EXTT3=
EXTT4=
EXTT5=
EXTT6=
EXTT7=
EXTT8=
EXTT9=
EXTT10=
EXTT11=
EXTT12=
EXTT13=
PLAYORDER=
